# xmcd
#
# Track frame offsets:
#	150
#	2740
#	14827
#	25189
#	32233
#	43633
#	59709
#	68391
#	82049
#	93214
#	102163
#	111447
#	125727
#	140751
#	154658
#	167111
#	174357
#	184736
#	197000
#	199325
#	205025
#	211512
#	224447
#	236264
#	247780
#	262222
#	280926
#
# Disc length: 3893 seconds
# Revision: 0
# Processed by: cddbd v1.5.2PL0 Copyright (c) Steve Scherf et al.
# Submitted via: dBpowerAMP V12.0
#
DISCID=860f331b
DTITLE=Various Artist - Kinfolks at Dollywood
DYEAR=1900
DGENRE=Country
TTITLE0=Bill Owens - Cannonball Rag
TTITLE1=Bill Owens - Instrumental With Kinfolks Band
TTITLE2=Bill Owens - If You Want to Be My Baby
TTITLE3=Bill Owens - Last Thing on My Mind
TTITLE4=Bill Owens - Put It Off Until Tomorrow
TTITLE5=Bill Owens - Dreams Do Come True
TTITLE6=Louis Owens - When Possesion Gets to Strong
TTITLE7=Louis Owens - There"ll Always Be Music
TTITLE8=Louis Owens - Cash on the Barrrelhead
TTITLE9=Louis Owens - I Don't Need Your Rockin' Chair
TTITLE10=Louis Owens - Fighting Side of Me
TTITLE11=Debra Jo Puckett - Jolene
TTITLE12=Debra Jo Puckett - Smokey Mountain Memories
TTITLE13=Debra Jo Puckett - Coat of Many Colors
TTITLE14=Dwight Puckett - Kentuckey Gambler
TTITLE15=Dwight Puckett - Those Memories of You
TTITLE16=Dwight Puckett - Got No Reason
TTITLE17=Dwight Puckett - Better Man
TTITLE18=Dale Puckett - Tennessee Mountain Home
TTITLE19=Dale Puckett - Nine to Five
TTITLE20=Dale Puckett - Organge Blosssom Special
TTITLE21=Dale Puckett - Saints Go Marching In
TTITLE22=Bill Owens - Welfare Blues
TTITLE23=Bill Owens - Fell Off the Wagon
TTITLE24=Bill Owens - My Minds Been Cheating on You
TTITLE25=Bill Owens - Honky Tonk Bars
TTITLE26=Bill Owens - Mr. Sandman
EXTD=
EXTT0=
EXTT1=
EXTT2=
EXTT3=
EXTT4=
EXTT5=
EXTT6=
EXTT7=
EXTT8=
EXTT9=
EXTT10=
EXTT11=
EXTT12=
EXTT13=
EXTT14=
EXTT15=
EXTT16=
EXTT17=
EXTT18=
EXTT19=
EXTT20=
EXTT21=
EXTT22=
EXTT23=
EXTT24=
EXTT25=
EXTT26=
PLAYORDER=
